<svg xmlns="http://www.w3.org/2000/svg" viewBox="0 0 1 1">
	<path fill="black" stroke-width=""
		d="M0.5002 0.10747572875253811 L0.10042786437626905 0.4662178643762691 l0.02671524585077328 0.029770717813528465 l0.06725688977295768 -0.060354082044552726 v0.44845 h0.25506 v-0.25166 H0.5505 v0.25166 h0.25506 v-0.44845 l0.06725688977295768 0.060354082044552726 l0.02671524585077328 -0.029770717813528465 l-0.154812135623731 -0.13892322952293115 V0.1 h-0.12657 V0.21371495268001076 z v0.0565685424949238 L0.65815 0.30578331524901864 V0.14 H0.7047199999999999 V0.2910051322295775 L0.65815 0.2492147727540948 v0.0565685424949238 L0.76556 0.40216945463621206 V0.8440845001452447 h-0.17166 v-0.25166 H0.40946 v0.25166 h-0.17166 V0.40216945463621206 L0.5002 0.16404427124746193 z " />
	<path class="home-icon-interior" fill="black" stroke-width=".01" stroke="black"
		d="M0.5002 0.10747572875253811 m0 0.0565685424949238 L0.65815 0.30578331524901864 V0.14 H0.7047199999999999 V0.2910051322295775 L0.65815 0.2492147727540948 v0.0565685424949238 L0.76556 0.40216945463621206 V0.8440845001452447 h-0.17166 v-0.25166 H0.40946 v0.25166 h-0.17166 V0.40216945463621206 L0.5002 0.16404427124746193 z " />

</svg>
