<svg viewBox="0 0 1 1" xmlns="http://www.w3.org/2000/svg">
	<path transform="scale(1, 0.9795918367)"
		d="M 0.49851020408163266 0.0 C 0.22284693877551018 0.0 0.0 0.22916666666666666 0.0 0.5126770833333333 c 0.0 0.226625 0.1427857142857143 0.4184583333333333 0.3408673469387755 0.48635416666666664 0.02476530612244898 0.005104166666666667 0.033836734693877546 -0.01103125 0.033836734693877546 -0.024604166666666667 0.0 -0.011885416666666667 -0.0008163265306122449 -0.052625 -0.0008163265306122449 -0.09507291666666667 -0.1386734693877551 0.0305625 -0.16755102040816328 -0.06111458333333333 -0.16755102040816328 -0.06111458333333333 -0.022285714285714287 -0.059416666666666666 -0.05530612244897959 -0.0746875 -0.05530612244897959 -0.0746875 -0.04538775510204082 -0.03140625 0.003306122448979592 -0.03140625 0.003306122448979592 -0.03140625 0.050346938775510205 0.0033958333333333336 0.07676530612244897 0.052625 0.07676530612244897 0.052625 0.044561224489795916 0.07808333333333334 0.11636734693877551 0.05602083333333333 0.14525510204081632 0.042437499999999996 0.004122448979591837 -0.033104166666666664 0.017336734693877552 -0.05602083333333333 0.031367346938775506 -0.06874999999999999 -0.11060204081632653 -0.011885416666666667 -0.22696938775510203 -0.05602083333333333 -0.22696938775510203 -0.25294791666666666 0.0 -0.05602083333333333 0.019795918367346937 -0.10185416666666668 0.05116326530612245 -0.13749999999999998 -0.004948979591836734 -0.012729166666666666 -0.022285714285714287 -0.06536458333333334 0.004959183673469388 -0.1358125 0.0 0.0 0.042091836734693876 -0.013583333333333334 0.137 0.052625 a 0.47928571428571426 0.4892708333333333 0 0 1 0.1246326530612245 -0.016979166666666667 c 0.042091836734693876 0.0 0.085 0.0059479166666666665 0.12462244897959183 0.016979166666666667 0.09491836734693877 -0.06620833333333333 0.13701020408163264 -0.052625 0.13701020408163264 -0.052625 0.027244897959183674 0.07044791666666667 0.009897959183673468 0.12308333333333334 0.004948979591836734 0.1358125 0.032193877551020406 0.035645833333333335 0.0511734693877551 0.08147916666666667 0.0511734693877551 0.13749999999999998 0.0 0.19692708333333334 -0.11636734693877551 0.24020833333333333 -0.22779591836734694 0.25294791666666666 0.018163265306122448 0.016125 0.033836734693877546 0.046677083333333334 0.033836734693877546 0.0950625 0.0 0.06874999999999999 -0.0008163265306122449 0.12392708333333334 -0.0008163265306122449 0.14089583333333333 0.0 0.013583333333333334 0.009081632653061224 0.02971875 0.033836734693877546 0.024624999999999998 0.19808163265306122 -0.06791666666666667 0.3408673469387755 -0.2597395833333333 0.3408673469387755 -0.4863645833333334 C 0.9970102040816325 0.22916666666666666 0.7733469387755102 0.0 0.49851020408163266 0.0 z"
		fill="#fff" />
</svg>
